<!-- icon666.com - MILLIONS vector ICONS FREE --><svg id="Layer_1" enable-background="new 0 0 512 512" viewBox="0 0 512 512" xmlns="http://www.w3.org/2000/svg"><g><path clip-rule="evenodd" d="m256 397.836c77.66 0 141-63.34 141-141-7.213-186.776-274.817-186.725-282.001.002.001 77.658 63.341 140.998 141.001 140.998z" fill="#a4fbc4" fill-rule="evenodd" style="fill: rgb(23, 24, 33);"></path><g fill="#020288"><path d="m256 .836c-141.159 0-256 114.841-256 256 12.87 339.151 499.182 339.059 512-.003 0-141.156-114.841-255.997-256-255.997zm209.172 365.219-34.671-20.018c12.305-23.975 19.813-50.801 21.247-79.201h7.752c13.254-.492 13.244-19.513 0-20h-7.752c-1.434-28.4-8.942-55.226-21.247-79.201l34.672-20.018c35.437 64.432 35.436 154.007-.001 218.438zm-209.172 109.281c-5.523 0-10 4.478-10 10v7.29c-35.671-1.494-69.322-10.945-99.218-26.618l20.017-34.671c52.801 28.404 125.602 28.403 178.402 0l20.017 34.671c-29.897 15.674-63.547 25.124-99.219 26.618v-7.29c.001-5.522-4.477-10-9.999-10zm0-42.5c-97.047 0-176-78.953-176-176 8.848-233.169 343.187-233.105 352 .002 0 97.045-78.953 175.998-176 175.998zm-195.748-186h-40.043c1.494-35.672 10.944-69.322 26.618-99.219l34.672 20.018c-12.305 23.975-19.813 50.801-21.247 79.201zm394.892-116.523-34.671 20.018c-33.272-51.204-89.788-85.977-154.473-89.244v-40.042c35.672 1.494 69.322 10.944 99.219 26.618l-3.629 6.286c-2.761 4.783-1.122 10.899 3.661 13.66 4.698 2.737 10.883 1.167 13.661-3.66l3.612-6.257c29.178 18.605 54.015 43.442 72.62 72.621zm-209.144-109.268v40.042c-28.4 1.434-55.226 8.942-79.201 21.247l-3.888-6.735c-2.763-4.783-8.878-6.423-13.661-3.66-4.783 2.761-6.422 8.877-3.661 13.66l3.905 6.764c-23.143 15.038-42.929 34.824-57.967 57.968l-34.672-20.018c40.254-63.133 109.684-105.939 189.145-109.268zm-225.791 245.791h40.043c1.434 28.4 8.942 55.226 21.247 79.201l-6.735 3.889c-4.783 2.762-6.422 8.877-3.66 13.66 2.777 4.827 8.962 6.397 13.66 3.66l6.764-3.905c15.038 23.143 34.824 42.929 57.967 57.967l-20.017 34.671c-63.134-40.252-105.94-109.683-109.269-189.143zm362.313 189.143-20.017-34.671c23.143-15.038 42.929-34.824 57.967-57.967l34.671 20.018c-18.604 29.179-43.441 54.016-72.621 72.62z" fill="#020288" style="fill: rgb(54, 54, 236);"></path><path d="m327.904 251.756c13.254-.492 13.244-19.513 0-20h-38.371l-24.104-68.25c-3.062-8.821-15.799-8.817-18.858 0l-24.104 68.25h-38.371c-13.254.492-13.244 19.513 0 20h31.308l-7.848 22.223h-23.46c-13.254.492-13.244 19.513 0 20h16.396l-10.428 29.527c-1.839 5.208.892 10.92 6.099 12.76s10.92-.892 12.759-6.1l12.78-36.188h68.596l12.78 36.188c1.831 5.258 7.69 7.931 12.759 6.1 5.208-1.84 7.938-7.552 6.099-12.76l-10.428-29.527h16.396c13.254-.492 13.244-19.513 0-20h-23.46l-7.848-22.223zm-71.904-54.892 12.323 34.892h-24.646zm27.234 77.115h-54.469l7.848-22.223h38.772z" fill="#020288" style="fill: rgb(54, 54, 236);"></path></g></g></svg>